<svg xmlns="http://www.w3.org/2000/svg" width="1500" height="840" viewBox="0 0 1500 840" role="img" aria-labelledby="title desc">
  <title id="title">NYC Taxi Lakehouse ETL Architecture</title>
  <desc id="desc">End-to-end ETL and lakehouse architecture for the NYC Taxi project.</desc>
  <defs>
    <marker id="arrow" markerWidth="12" markerHeight="12" refX="10" refY="6" orient="auto" markerUnits="strokeWidth">
      <path d="M2,2 L10,6 L2,10 Z" fill="#1f2937"/>
    </marker>
    <filter id="shadow" x="-20%" y="-20%" width="140%" height="140%">
      <feDropShadow dx="0" dy="8" stdDeviation="8" flood-color="#0f172a" flood-opacity="0.12"/>
    </filter>
    <style>
      .bg { fill: #f8fafc; }
      .phase { fill: #eef6ff; stroke: #bfdbfe; stroke-width: 1; }
      .phase2 { fill: #f0fdf4; stroke: #bbf7d0; stroke-width: 1; }
      .phase3 { fill: #fff7ed; stroke: #fed7aa; stroke-width: 1; }
      .box { fill: #ffffff; stroke: #cbd5e1; stroke-width: 1.5; rx: 18; filter: url(#shadow); }
      .box-blue { fill: #eff6ff; stroke: #60a5fa; }
      .box-green { fill: #ecfdf5; stroke: #34d399; }
      .box-orange { fill: #fff7ed; stroke: #fb923c; }
      .box-purple { fill: #f5f3ff; stroke: #a78bfa; }
      .box-red { fill: #fef2f2; stroke: #f87171; }
      .title { font: 700 30px Arial, sans-serif; fill: #0f172a; }
      .subtitle { font: 400 16px Arial, sans-serif; fill: #475569; }
      .phaseText { font: 700 14px Arial, sans-serif; fill: #1e3a8a; letter-spacing: 1px; }
      .label { font: 700 18px Arial, sans-serif; fill: #111827; }
      .small { font: 400 13px Arial, sans-serif; fill: #475569; }
      .tiny { font: 400 12px Arial, sans-serif; fill: #64748b; }
      .metric { font: 700 13px Arial, sans-serif; fill: #0f766e; }
      .arrow { stroke: #1f2937; stroke-width: 2.5; fill: none; marker-end: url(#arrow); }
      .dash { stroke: #64748b; stroke-width: 2; stroke-dasharray: 6 6; fill: none; marker-end: url(#arrow); }
      .icon { font: 700 28px Arial, sans-serif; fill: #0f172a; }
    </style>
  </defs>

  <rect class="bg" x="0" y="0" width="1500" height="840"/>
  <text class="title" x="54" y="58">NYC Taxi Lakehouse Analytics Pipeline</text>
  <text class="subtitle" x="54" y="86">Batch ETL/ELT pipeline: official monthly Parquet files become tested DuckDB marts for demand, revenue and airport trip analytics.</text>

  <rect class="phase" x="50" y="126" width="280" height="610" rx="22"/>
  <rect class="phase2" x="360" y="126" width="520" height="610" rx="22"/>
  <rect class="phase3" x="910" y="126" width="540" height="610" rx="22"/>
  <text class="phaseText" x="75" y="158">EXTRACT + RAW LANDING</text>
  <text class="phaseText" x="385" y="158">TRANSFORM + MODEL</text>
  <text class="phaseText" x="935" y="158">SERVE + GOVERN</text>

  <rect class="box box-blue" x="78" y="194" width="220" height="126"/>
  <text class="icon" x="104" y="236">NYC TLC</text>
  <text class="label" x="104" y="265">Monthly Parquet</text>
  <text class="small" x="104" y="290">yellow_tripdata_YYYY-MM</text>
  <text class="tiny" x="104" y="310">Large public taxi trip files</text>

  <rect class="box" x="78" y="382" width="220" height="126"/>
  <text class="icon" x="104" y="424">Python</text>
  <text class="label" x="104" y="453">Extract Job</text>
  <text class="small" x="104" y="478">scripts/ingest_tlc.py</text>
  <text class="tiny" x="104" y="498">download + partition by year/month</text>

  <rect class="box box-blue" x="78" y="570" width="220" height="126"/>
  <text class="icon" x="104" y="612">Raw Zone</text>
  <text class="label" x="104" y="641">Immutable Files</text>
  <text class="small" x="104" y="666">data/raw/yellow/</text>
  <text class="tiny" x="104" y="686">original Parquet preserved</text>

  <rect class="box box-green" x="396" y="194" width="210" height="126"/>
  <text class="icon" x="422" y="236">DuckDB</text>
  <text class="label" x="422" y="265">Bronze Layer</text>
  <text class="small" x="422" y="290">bronze.yellow_trips</text>
  <text class="tiny" x="422" y="310">schema-on-read external view</text>

  <rect class="box box-green" x="636" y="194" width="210" height="126"/>
  <text class="icon" x="662" y="236">SQL</text>
  <text class="label" x="662" y="265">Silver Contract</text>
  <text class="small" x="662" y="290">clean + rejected trips</text>
  <text class="tiny" x="662" y="310">valid rows or rejection reason</text>

  <rect class="box box-purple" x="396" y="382" width="210" height="126"/>
  <text class="icon" x="422" y="424">dbt</text>
  <text class="label" x="422" y="453">Semantic Models</text>
  <text class="small" x="422" y="478">staging + intermediate</text>
  <text class="tiny" x="422" y="498">lineage and model tests</text>

  <rect class="box box-orange" x="636" y="382" width="210" height="126"/>
  <text class="icon" x="662" y="424">Gold</text>
  <text class="label" x="662" y="453">Analytics Marts</text>
  <text class="small" x="662" y="478">hourly, zone, airport</text>
  <text class="tiny" x="662" y="498">business-friendly tables</text>

  <rect class="box box-red" x="396" y="570" width="450" height="126"/>
  <text class="icon" x="422" y="612">Quality Gate</text>
  <text class="label" x="422" y="641">Fail Fast Before Consumption</text>
  <text class="small" x="422" y="666">9 gates: validity, uniqueness, dimensions, reconciliation, marts</text>
  <text class="metric" x="422" y="686">pytest + dbt + Markdown/JSON quality evidence</text>

  <rect class="box box-purple" x="948" y="194" width="210" height="126"/>
  <text class="icon" x="974" y="236">Airflow</text>
  <text class="label" x="974" y="265">Orchestration</text>
  <text class="small" x="974" y="290">monthly DAG</text>
  <text class="tiny" x="974" y="310">extract -> build -> validate</text>

  <rect class="box box-orange" x="1190" y="194" width="210" height="126"/>
  <text class="icon" x="1216" y="236">CSV/BI</text>
  <text class="label" x="1216" y="265">Consumption</text>
  <text class="small" x="1216" y="290">data/marts/*.csv</text>
  <text class="tiny" x="1216" y="310">dashboard-ready outputs</text>

  <rect class="box" x="948" y="382" width="452" height="126"/>
  <text class="icon" x="974" y="424">CI/CD</text>
  <text class="label" x="974" y="453">GitHub Actions Verification</text>
  <text class="small" x="974" y="478">install deps -> run demo -> pytest -> dbt run/test</text>
  <text class="tiny" x="974" y="498">proves the repo is reproducible for reviewers</text>

  <rect class="box" x="948" y="570" width="452" height="126"/>
  <text class="icon" x="974" y="612">Lineage</text>
  <text class="label" x="974" y="641">Data Product Contract</text>
  <text class="small" x="974" y="666">docs/data_contract.md + README model definitions</text>
  <text class="tiny" x="974" y="686">documents grain, rules, marts and failure modes</text>

  <path class="arrow" d="M188 320 L188 382"/>
  <path class="arrow" d="M188 508 L188 570"/>
  <path class="arrow" d="M298 633 L396 257"/>
  <path class="arrow" d="M606 257 L636 257"/>
  <path class="arrow" d="M741 320 L741 382"/>
  <path class="arrow" d="M846 445 L1190 257"/>
  <path class="dash" d="M1053 320 L1053 382"/>
  <path class="dash" d="M621 508 L621 570"/>
  <path class="dash" d="M1174 508 L1174 570"/>

  <text class="tiny" x="318" y="322">LOAD parquet into bronze</text>
  <text class="tiny" x="612" y="238">clean + conform</text>
  <text class="tiny" x="760" y="360">model marts</text>
  <text class="tiny" x="1000" y="365">scheduled by DAG</text>
  <text class="tiny" x="650" y="552">quality blocks bad releases</text>

  <rect x="50" y="770" width="1400" height="38" rx="12" fill="#0f172a"/>
  <text x="76" y="795" font-family="Arial, sans-serif" font-size="15" fill="#e2e8f0">Design intent: preserve raw data, make transformations auditable, fail bad records before marts, and expose only tested business tables to analytics consumers.</text>
</svg>
